<svg version="1.1" id="Layer_1" xmlns="http://www.w3.org/2000/svg" xmlns:xlink="http://www.w3.org/1999/xlink" x="0px" y="0px" viewBox="0 0 512 512" style="enable-background:new 0 0 512 512;" xml:space="preserve">
<polygon style="fill:#65D3AF;" points="288.353,255.243 288.353,85.081 212.725,85.081 212.725,113.441 241.086,113.441 
	241.086,132.348 212.725,132.348 212.725,151.255 241.086,151.255 241.086,170.162 212.725,170.162 212.725,189.069 
	241.086,189.069 241.086,207.976 212.725,207.976 212.725,255.243 "/>
<circle style="fill:#E5D85A;" cx="118.191" cy="425.405" r="9.453"/>
<path style="fill:#C59981;" d="M278.262,322.931c-5.89,0-12.011,0.354-18.27,0.954v35.346c0,5.225-4.228,9.453-9.453,9.453
	c-5.225,0-9.453-4.228-9.453-9.453V326.53c-16.552,2.975-33.904,7.729-51.532,14.283l-9.149,3.397l-3.111-9.25
	c-6.398-19.027-20.735-31.979-34.583-31.979c-1.385,0-2.77,0.129-4.136,0.397c-7.995,1.551-14.836,7.515-19.258,16.774
	c-4.884,10.21-6.185,22.941-3.684,35.838c0.757,3.859,1.837,7.644,3.222,11.235l2.742,7.099l-6.342,4.191
	c-43.686,28.868-63.239,55.899-63.239,69.876c0,40.066,106.453,44.701,186.521,44.701c110.303,0,172.71-2.714,172.71-58.484
	C411.248,383.658,388.177,322.931,278.262,322.931z M118.191,453.765c-15.639,0-28.36-12.721-28.36-28.36
	c0-15.639,12.722-28.36,28.36-28.36s28.36,12.721,28.36,28.36C146.551,441.044,133.83,453.765,118.191,453.765z"/>
<g>
	<path style="fill:#314E55;" d="M118.191,397.045c-15.639,0-28.36,12.721-28.36,28.36c0,15.639,12.722,28.36,28.36,28.36
		s28.36-12.721,28.36-28.36C146.551,409.766,133.83,397.045,118.191,397.045z M118.191,434.858c-5.216,0-9.453-4.238-9.453-9.453
		c0-5.216,4.238-9.453,9.453-9.453c5.216,0,9.453,4.238,9.453,9.453C127.644,430.621,123.407,434.858,118.191,434.858z"/>
	<path style="fill:#314E55;" d="M426.637,234.961c-41.239-46.575-55.973-86.863-42.624-116.516
		c12.998-28.868,49.732-41.359,65.602-41.359c5.225,0,9.453-4.228,9.453-9.453s-4.228-9.453-9.453-9.453
		c-23.874,0-66.71,16.682-82.838,52.502c-11.605,25.757-13.091,70.402,45.698,136.816c37.86,42.762,53.563,77.419,45.421,100.231
		c-7.546,21.158-34.342,27.376-39.053,28.321c-16.392-37.538-54.778-72.024-140.581-72.024c-5.907,0-12.043,0.37-18.27,0.919V274.15
		h47.267V85.081h28.36c5.225,0,9.453-4.228,9.453-9.453s-4.228-9.453-9.453-9.453h-28.36h-47.267V18.907h75.628
		c5.225,0,9.453-4.228,9.453-9.453S340.845,0,335.62,0H165.458c-5.225,0-9.453,4.228-9.453,9.453s4.228,9.453,9.453,9.453h75.628
		v47.267h-47.267h-28.36c-5.225,0-9.453,4.228-9.453,9.453s4.228,9.453,9.453,9.453h28.36V274.15h47.267v33.287
		c-15.976,2.661-32.568,6.766-49.464,12.558c-11.808-24.972-34.527-39.485-56.647-35.173c-14.032,2.723-25.655,12.371-32.718,27.179
		c-6.619,13.848-8.456,30.751-5.179,47.6c0.471,2.428,1.052,4.847,1.726,7.21c-41.276,28.517-65.694,58.724-65.694,81.582
		c0,55.899,98.735,63.608,205.428,63.608c102.815,0,191.617,0,191.617-77.391c0-12.081-1.219-26.189-5.048-40.579
		c10.913-2.575,40.521-11.965,50.552-39.812C486.506,324.085,470.018,283.963,426.637,234.961z M212.725,207.976h28.36v-18.907
		h-28.36v-18.907h28.36v-18.907h-28.36v-18.907h28.36v-18.907h-28.36v-28.36h75.628v170.162h-75.628V207.976z M238.538,493.093
		c-80.068,0-186.521-4.634-186.521-44.701c0-13.977,19.553-41.008,63.238-69.876l6.342-4.191l-2.742-7.099
		c-1.385-3.591-2.465-7.376-3.222-11.235c-2.502-12.897-1.2-25.628,3.684-35.838c4.422-9.26,11.263-15.223,19.258-16.774
		c1.366-0.268,2.751-0.397,4.136-0.397c13.848,0,28.185,12.952,34.583,31.979l3.111,9.25l9.149-3.397
		c17.629-6.554,34.981-11.308,51.532-14.283v32.701c0,5.225,4.228,9.453,9.453,9.453c5.225,0,9.453-4.228,9.453-9.453v-35.345
		c6.259-0.601,12.379-0.954,18.27-0.954c109.915,0,132.985,60.727,132.985,111.678C411.248,490.379,348.84,493.093,238.538,493.093z
		"/>
</g>
</svg>